<svg width="3270" height="1004" viewBox="0 0 3270 1004" fill="none" xmlns="http://www.w3.org/2000/svg">
<path d="M1339.38 152.519C1352.17 152.519 1362.61 156.726 1370.69 165.141C1378.77 173.556 1382.81 184.496 1382.81 197.96V472.627C1382.81 485.418 1379.1 495.516 1371.7 502.922C1364.29 510.327 1354.53 514.029 1342.41 514.029C1330.63 514.029 1320.87 510.327 1313.13 502.922C1305.72 495.516 1302.02 485.418 1302.02 472.627V324.186L1244.46 430.215C1238.74 440.987 1232.68 448.729 1226.29 453.441C1219.89 457.817 1212.32 460.005 1203.56 460.005C1194.81 460.005 1187.24 457.817 1180.84 453.441C1174.45 448.729 1168.39 440.987 1162.67 430.215L1105.61 327.215V472.627C1105.61 485.082 1101.74 495.18 1094 502.922C1086.6 510.327 1076.83 514.029 1064.72 514.029C1052.93 514.029 1043.17 510.327 1035.43 502.922C1028.03 495.516 1024.32 485.418 1024.32 472.627V197.96C1024.32 184.496 1028.36 173.556 1036.44 165.141C1044.86 156.726 1055.46 152.519 1068.25 152.519C1077.34 152.519 1085.59 155.211 1092.99 160.597C1100.4 165.646 1106.62 173.051 1111.67 182.813L1204.57 357.509L1296.97 182.813C1307.41 162.617 1321.54 152.519 1339.38 152.519ZM1789.15 453.946C1792.18 460.341 1793.69 466.568 1793.69 472.627C1793.69 483.735 1789.15 493.16 1780.06 500.902C1771.31 508.644 1761.21 512.515 1749.77 512.515C1742.03 512.515 1734.96 510.495 1728.56 506.456C1722.17 502.417 1717.12 496.358 1713.41 488.279L1690.69 437.284H1527.1L1503.88 488.279C1500.18 496.358 1494.96 502.417 1488.23 506.456C1481.83 510.495 1474.76 512.515 1467.02 512.515C1455.58 512.515 1445.14 508.644 1435.72 500.902C1426.63 493.16 1422.08 483.735 1422.08 472.627C1422.08 466.568 1423.6 460.341 1426.63 453.946L1559.92 180.288C1564.3 171.2 1570.69 164.3 1579.11 159.587C1587.86 154.538 1597.45 152.014 1607.89 152.014C1617.99 152.014 1627.41 154.538 1636.16 159.587C1644.92 164.3 1651.48 171.2 1655.86 180.288L1789.15 453.946ZM1558.41 367.607H1659.39L1608.9 255.014L1558.41 367.607ZM2132.86 441.323C2141.61 449.738 2145.99 459.5 2145.99 470.608C2145.99 481.716 2141.78 491.477 2133.36 499.892C2124.95 508.307 2115.02 512.515 2103.57 512.515C2091.12 512.515 2079.68 507.129 2069.24 496.358L1925.34 348.926V468.083C1925.34 482.221 1921.14 493.497 1912.72 501.912C1904.31 509.99 1892.86 514.029 1878.39 514.029C1864.25 514.029 1852.97 509.99 1844.56 501.912C1836.48 493.497 1832.44 482.221 1832.44 468.083V197.96C1832.44 184.159 1836.48 173.22 1844.56 165.141C1852.97 156.726 1864.25 152.519 1878.39 152.519C1892.86 152.519 1904.31 156.726 1912.72 165.141C1921.14 173.22 1925.34 184.159 1925.34 197.96V309.039L2067.22 166.151C2075.97 157.063 2085.9 152.519 2097.01 152.519C2108.12 152.519 2117.88 156.726 2126.3 165.141C2134.71 173.22 2138.92 182.813 2138.92 193.921C2138.92 205.028 2134.04 215.295 2124.28 224.72L2020.77 326.205L2132.86 441.323ZM2227.9 511C2214.1 511 2203.5 507.297 2196.09 499.892C2188.69 492.487 2184.99 481.884 2184.99 468.083V197.96C2184.99 184.159 2188.69 173.556 2196.09 166.151C2203.5 158.746 2214.1 155.043 2227.9 155.043H2402.6C2417.07 155.043 2428.01 158.072 2435.42 164.131C2442.82 170.19 2446.53 178.942 2446.53 190.386C2446.53 214.622 2431.88 226.739 2402.6 226.739H2275.36V294.396H2392.5C2421.79 294.396 2436.43 306.346 2436.43 330.245C2436.43 341.689 2432.73 350.441 2425.32 356.5C2417.91 362.558 2406.98 365.588 2392.5 365.588H2275.36V439.304H2402.6C2431.88 439.304 2446.53 451.421 2446.53 475.657C2446.53 487.101 2442.82 495.853 2435.42 501.912C2428.01 507.971 2417.07 511 2402.6 511H2227.9ZM2785.66 451.926C2791.72 461.015 2794.75 469.598 2794.75 477.676C2794.75 488.448 2790.2 497.536 2781.12 504.941C2772.36 512.01 2762.1 515.544 2750.32 515.544C2742.24 515.544 2734.66 513.693 2727.6 509.99C2720.53 506.288 2714.47 500.734 2709.42 493.328L2643.78 397.397C2639.07 390.665 2634.02 385.784 2628.63 382.755C2623.59 379.388 2617.53 377.705 2610.46 377.705H2577.64V468.083C2577.64 482.221 2573.6 493.497 2565.52 501.912C2557.44 509.99 2546.34 514.029 2532.2 514.029C2518.06 514.029 2506.78 509.99 2498.37 501.912C2490.29 493.497 2486.25 482.221 2486.25 468.083V197.96C2486.25 184.159 2489.95 173.556 2497.36 166.151C2504.77 158.746 2515.37 155.043 2529.17 155.043H2655.9C2698.98 155.043 2731.3 164.468 2752.84 183.318C2774.72 201.831 2785.66 228.759 2785.66 264.102C2785.66 291.03 2778.25 313.919 2763.44 332.769C2748.63 351.282 2727.76 363.736 2700.84 370.132C2711.94 371.815 2721.54 375.518 2729.62 381.24C2738.03 386.962 2746.28 395.545 2754.36 406.99L2785.66 451.926ZM2641.26 308.029C2661.79 308.029 2676.43 304.831 2685.18 298.436C2694.27 292.04 2698.82 281.606 2698.82 267.132C2698.82 252.321 2694.27 241.718 2685.18 235.323C2676.43 228.591 2661.79 225.225 2641.26 225.225H2576.63V308.029H2641.26ZM2974.08 515.544C2947.15 515.544 2922.07 512.683 2898.84 506.961C2875.96 500.902 2857.11 492.655 2842.3 482.221C2836.57 477.845 2832.37 473.301 2829.67 468.588C2827.32 463.876 2826.14 457.817 2826.14 450.412C2826.14 440.314 2829.17 431.562 2835.23 424.157C2841.29 416.751 2848.35 413.049 2856.43 413.049C2860.81 413.049 2865.02 413.722 2869.06 415.068C2873.09 416.415 2878.14 418.939 2884.2 422.642C2898 430.384 2911.64 435.938 2925.1 439.304C2938.9 442.67 2954.38 444.353 2971.55 444.353C2991.41 444.353 3006.39 441.492 3016.49 435.769C3026.92 429.711 3032.14 420.959 3032.14 409.514C3032.14 401.773 3027.26 395.209 3017.5 389.823C3008.07 384.101 2989.9 378.547 2962.97 373.161C2929.64 366.093 2903.56 357.678 2884.71 347.916C2865.86 338.155 2852.56 326.71 2844.82 313.583C2837.41 300.119 2833.71 283.962 2833.71 265.112C2833.71 243.569 2840.11 224.047 2852.9 206.543C2865.69 189.04 2883.19 175.407 2905.41 165.646C2927.96 155.548 2953.21 150.499 2981.14 150.499C3005.72 150.499 3027.6 153.192 3046.78 158.577C3065.97 163.963 3083.47 172.378 3099.29 183.823C3105.35 188.198 3109.56 192.911 3111.91 197.96C3114.61 202.672 3115.95 208.563 3115.95 215.631C3115.95 225.73 3112.92 234.481 3106.87 241.886C3101.14 249.292 3094.24 252.994 3086.16 252.994C3081.79 252.994 3077.75 252.489 3074.05 251.48C3070.34 250.133 3065.13 247.44 3058.39 243.401C3056.71 242.391 3051.83 239.867 3043.75 235.828C3036.01 231.452 3026.75 228.086 3015.98 225.73C3005.55 223.037 2994.1 221.69 2981.65 221.69C2964.48 221.69 2950.68 225.056 2940.25 231.788C2929.81 238.184 2924.59 246.767 2924.59 257.538C2924.59 263.934 2926.45 269.151 2930.15 273.19C2933.85 277.23 2940.75 281.269 2950.85 285.308C2960.95 289.011 2975.93 292.882 2995.79 296.921C3028.1 303.99 3053.51 312.573 3072.03 322.671C3090.54 332.432 3103.67 343.877 3111.41 357.004C3119.15 370.132 3123.02 385.616 3123.02 403.456C3123.02 425.671 3116.79 445.363 3104.34 462.529C3091.89 479.359 3074.38 492.487 3051.83 501.912C3029.61 511 3003.7 515.544 2974.08 515.544Z" fill="#E53E3E"/>
<path d="M1282.21 858.551C1286.87 865.543 1289.2 872.147 1289.2 878.362C1289.2 886.649 1285.71 893.641 1278.72 899.339C1271.98 904.777 1264.08 907.496 1255.02 907.496C1248.8 907.496 1242.98 906.072 1237.54 903.223C1232.1 900.374 1227.44 896.102 1223.56 890.404L1173.06 816.599C1169.43 811.419 1165.55 807.664 1161.4 805.334C1157.52 802.744 1152.86 801.449 1147.42 801.449H1122.17V870.982C1122.17 881.858 1119.06 890.534 1112.85 897.008C1106.63 903.223 1098.09 906.331 1087.21 906.331C1076.33 906.331 1067.66 903.223 1061.18 897.008C1054.97 890.534 1051.86 881.858 1051.86 870.982V663.161C1051.86 652.544 1054.71 644.386 1060.41 638.689C1066.1 632.992 1074.26 630.143 1084.88 630.143H1182.38C1215.53 630.143 1240.39 637.394 1256.96 651.896C1273.8 666.139 1282.21 686.857 1282.21 714.048C1282.21 734.765 1276.51 752.375 1265.12 766.877C1253.73 781.12 1237.67 790.702 1216.95 795.623C1225.5 796.917 1232.88 799.766 1239.09 804.168C1245.57 808.571 1251.91 815.174 1258.13 823.979L1282.21 858.551ZM1171.11 747.843C1186.91 747.843 1198.18 745.383 1204.91 740.463C1211.9 735.542 1215.4 727.514 1215.4 716.379C1215.4 704.984 1211.9 696.827 1204.91 691.906C1198.18 686.727 1186.91 684.137 1171.11 684.137H1121.39V747.843H1171.11ZM1555.74 907.496C1527.77 907.496 1503.43 901.799 1482.71 890.404C1462.25 878.751 1446.45 862.436 1435.32 841.46C1424.18 820.224 1418.61 795.364 1418.61 766.877C1418.61 738.391 1424.18 713.66 1435.32 692.683C1446.45 671.448 1462.25 655.133 1482.71 643.739C1503.43 632.344 1527.77 626.647 1555.74 626.647C1583.71 626.647 1607.92 632.344 1628.38 643.739C1649.1 655.133 1664.89 671.448 1675.77 692.683C1686.9 713.66 1692.47 738.391 1692.47 766.877C1692.47 795.364 1686.9 820.224 1675.77 841.46C1664.63 862.436 1648.71 878.751 1627.99 890.404C1607.53 901.799 1583.45 907.496 1555.74 907.496ZM1555.74 852.725C1576.46 852.725 1592.64 845.474 1604.29 830.971C1615.95 816.21 1621.77 794.846 1621.77 766.877C1621.77 738.909 1615.82 717.674 1603.91 703.171C1592.25 688.669 1576.2 681.418 1555.74 681.418C1535.02 681.418 1518.83 688.669 1507.18 703.171C1495.53 717.415 1489.7 738.65 1489.7 766.877C1489.7 795.105 1495.53 816.469 1507.18 830.971C1518.83 845.474 1535.02 852.725 1555.74 852.725ZM1965.51 907.496C1938.06 907.496 1913.98 901.799 1893.26 890.404C1872.8 879.01 1856.88 862.695 1845.48 841.46C1834.35 820.224 1828.78 795.364 1828.78 766.877C1828.78 738.65 1834.35 713.919 1845.48 692.683C1856.88 671.448 1872.8 655.133 1893.26 643.739C1913.98 632.344 1938.06 626.647 1965.51 626.647C1998.4 626.647 2027.28 635.322 2052.14 652.673C2056.54 655.781 2059.65 659.147 2061.46 662.773C2063.53 666.398 2064.57 671.06 2064.57 676.757C2064.57 684.785 2062.24 691.647 2057.58 697.345C2053.17 702.783 2047.73 705.502 2041.26 705.502C2037.38 705.502 2033.88 704.984 2030.77 703.948C2027.66 702.654 2024.04 700.711 2019.9 698.122C2010.83 692.683 2002.29 688.799 1994.26 686.468C1986.23 684.137 1977.94 682.972 1969.4 682.972C1946.35 682.972 1929.13 689.964 1917.73 703.948C1906.6 717.674 1901.03 738.65 1901.03 766.877C1901.03 795.364 1906.6 816.599 1917.73 830.583C1929.13 844.308 1946.35 851.171 1969.4 851.171C1977.17 851.171 1984.68 850.005 1991.93 847.675C1999.18 845.085 2008.5 841.201 2019.9 836.021C2025.33 833.173 2029.35 831.23 2031.94 830.195C2034.53 829.159 2037.63 828.641 2041.26 828.641C2047.73 828.641 2053.17 831.489 2057.58 837.187C2062.24 842.625 2064.57 849.358 2064.57 857.386C2064.57 862.824 2063.53 867.486 2061.46 871.37C2059.65 874.996 2056.54 878.362 2052.14 881.47C2027.28 898.821 1998.4 907.496 1965.51 907.496ZM2431.16 850.394C2437.89 856.868 2441.26 864.378 2441.26 872.924C2441.26 881.47 2438.02 888.98 2431.55 895.454C2425.08 901.928 2417.44 905.165 2408.63 905.165C2399.05 905.165 2390.24 901.022 2382.22 892.735L2271.51 779.308V870.982C2271.51 881.858 2268.27 890.534 2261.8 897.008C2255.32 903.223 2246.52 906.331 2235.38 906.331C2224.51 906.331 2215.83 903.223 2209.36 897.008C2203.14 890.534 2200.03 881.858 2200.03 870.982V663.161C2200.03 652.544 2203.14 644.127 2209.36 637.912C2215.83 631.438 2224.51 628.201 2235.38 628.201C2246.52 628.201 2255.32 631.438 2261.8 637.912C2268.27 644.127 2271.51 652.544 2271.51 663.161V748.62L2380.66 638.689C2387.4 631.697 2395.03 628.201 2403.58 628.201C2412.13 628.201 2419.64 631.438 2426.11 637.912C2432.59 644.127 2435.82 651.508 2435.82 660.054C2435.82 668.599 2432.07 676.498 2424.56 683.749L2344.92 761.827L2431.16 850.394ZM2605.28 904C2594.66 904 2586.51 901.151 2580.81 895.454C2575.11 889.757 2572.26 881.599 2572.26 870.982V663.161C2572.26 652.544 2575.11 644.386 2580.81 638.689C2586.51 632.992 2594.66 630.143 2605.28 630.143H2739.68C2750.82 630.143 2759.24 632.474 2764.93 637.135C2770.63 641.796 2773.48 648.53 2773.48 657.334C2773.48 675.98 2762.21 685.303 2739.68 685.303H2641.79V737.355H2731.91C2754.44 737.355 2765.71 746.548 2765.71 764.935C2765.71 773.74 2762.86 780.473 2757.16 785.134C2751.47 789.796 2743.05 792.126 2731.91 792.126H2641.79V848.84H2739.68C2762.21 848.84 2773.48 858.163 2773.48 876.809C2773.48 885.613 2770.63 892.347 2764.93 897.008C2759.24 901.669 2750.82 904 2739.68 904H2605.28ZM3009 905.942C2998.12 905.942 2989.32 902.835 2982.58 896.619C2976.11 890.145 2972.87 881.599 2972.87 870.982V688.022H2918.1C2906.71 688.022 2898.16 685.691 2892.46 681.03C2887.02 676.109 2884.31 668.729 2884.31 658.888C2884.31 649.047 2887.02 641.796 2892.46 637.135C2898.16 632.474 2906.71 630.143 2918.1 630.143H3099.9C3111.29 630.143 3119.71 632.474 3125.14 637.135C3130.84 641.796 3133.69 649.047 3133.69 658.888C3133.69 668.729 3130.84 676.109 3125.14 681.03C3119.71 685.691 3111.29 688.022 3099.9 688.022H3045.12V870.982C3045.12 881.599 3041.76 890.145 3035.02 896.619C3028.55 902.835 3019.87 905.942 3009 905.942Z" fill="#E53E3E"/>
<path fill-rule="evenodd" clip-rule="evenodd" d="M548.713 144.107C207.738 66.5807 109.291 127.164 30.5705 462.966C-48.1498 798.768 13.3668 895.721 354.342 973.247C695.317 1050.77 793.764 990.19 872.484 654.388C951.204 318.586 889.688 221.633 548.713 144.107ZM293.408 726.31C325.35 707.673 398.815 671.76 437.133 677.201C485.031 684.004 549.351 701.125 598.123 747.598C605.889 729 621.701 682.067 622.814 643.119C620.308 627.836 612.976 595.272 603.7 587.286C600.324 564.498 594.578 509.449 598.602 471.555C598.559 437.613 589.211 359.458 552.167 318.376C536.027 290.886 499.657 234.69 483.289 229.824C446.154 260.106 367.794 332.904 351.432 381.846C342.754 405.032 324.298 468.422 319.893 536.489C316.735 546.37 309.206 567.776 304.354 574.349C296.692 584.004 281.116 609.598 280.102 634.729C280.701 659.228 284.2 711.843 293.408 726.31ZM351.108 882.003C342.495 881.402 336.016 873.933 336.636 865.322L346.355 730.394C346.975 721.782 354.46 715.289 363.073 715.891C371.685 716.492 378.165 723.961 377.544 732.573L367.825 867.501C367.205 876.112 359.72 882.605 351.108 882.003ZM421.157 841.984C420.537 850.596 427.016 858.065 435.629 858.666C444.241 859.268 451.726 852.775 452.346 844.163L462.065 709.235C462.686 700.624 456.207 693.155 447.594 692.554C438.981 691.952 431.496 698.445 430.876 707.056L421.157 841.984ZM508.041 892.967C499.429 892.365 492.95 884.897 493.57 876.285L503.289 741.357C503.909 732.746 511.394 726.253 520.007 726.854C528.619 727.456 535.098 734.925 534.478 743.536L524.759 878.464C524.139 887.076 516.654 893.569 508.041 892.967Z" fill="#E53E3E"/>
</svg>
